<?xml version="1.0" encoding="UTF-8" standalone="no"?>
<!DOCTYPE svg PUBLIC "-//W3C//DTD SVG 1.1//EN" "http://www.w3.org/Graphics/SVG/1.1/DTD/svg11.dtd">
<svg width="100%" height="100%" viewBox="0 0 320 80" version="1.1" xmlns="http://www.w3.org/2000/svg" xmlns:xlink="http://www.w3.org/1999/xlink" xml:space="preserve" xmlns:serif="http://www.serif.com/" style="fill-rule:evenodd;clip-rule:evenodd;stroke-linejoin:round;stroke-miterlimit:2;">
    <rect x="0" y="0" width="320" height="80" style="fill:rgb(235,235,235);"/>
    <g>
        <path d="M104.648,41.24C109.598,41.24 114.428,38.06 114.428,30.74C114.428,23.42 109.598,20.24 104.648,20.24L98.078,20.24L98.078,41.24L104.648,41.24ZM101.978,23.84L103.418,23.84C105.248,23.84 106.748,24.23 108.158,25.19C109.598,26.15 110.468,28.07 110.468,30.74C110.468,33.41 109.598,35.33 108.158,36.29C106.748,37.25 105.248,37.64 103.418,37.64L101.978,37.64L101.978,23.84Z" style="fill-rule:nonzero;"/>
        <path d="M118.958,39.29C120.338,40.76 122.198,41.48 124.568,41.48C126.938,41.48 128.798,40.76 130.178,39.29C131.558,37.82 132.248,35.93 132.248,33.68C132.248,31.43 131.558,29.57 130.178,28.1C128.798,26.63 126.938,25.88 124.568,25.88C122.198,25.88 120.338,26.63 118.958,28.1C117.578,29.57 116.888,31.43 116.888,33.68C116.888,35.93 117.578,37.82 118.958,39.29ZM121.808,30.41C122.498,29.51 123.398,29.06 124.568,29.06C125.738,29.06 126.638,29.51 127.328,30.41C128.018,31.28 128.348,32.39 128.348,33.68C128.348,34.97 128.018,36.08 127.328,36.98C126.638,37.85 125.738,38.3 124.568,38.3C123.398,38.3 122.498,37.85 121.808,36.98C121.118,36.08 120.788,34.97 120.788,33.68C120.788,32.39 121.118,31.28 121.808,30.41Z" style="fill-rule:nonzero;"/>
        <path d="M145.508,35.81C144.698,37.46 143.498,38.3 141.968,38.3C139.688,38.3 138.488,36.44 138.488,33.68C138.488,30.92 139.688,29.06 141.968,29.06C143.498,29.06 144.698,29.9 145.508,31.55L148.838,30.2C147.668,27.32 145.388,25.88 141.968,25.88C139.598,25.88 137.798,26.63 136.508,28.1C135.218,29.57 134.588,31.43 134.588,33.68C134.588,35.93 135.218,37.79 136.508,39.26C137.798,40.73 139.598,41.48 141.968,41.48C145.388,41.48 147.668,40.04 148.838,37.16L145.508,35.81Z" style="fill-rule:nonzero;"/>
        <path d="M164.588,26.12L160.868,26.12L160.868,32.15C160.868,35.96 159.338,38.3 157.418,38.3C155.978,38.3 155.258,37.46 155.258,35.81L155.258,26.12L151.538,26.12L151.538,36.92C151.538,39.89 153.398,41.48 156.188,41.48C158.078,41.48 159.638,40.58 160.868,38.81L160.868,41.24L164.588,41.24L164.588,26.12Z" style="fill-rule:nonzero;"/>
        <path d="M180.818,35.36C180.818,31.28 182.168,29.06 184.088,29.06C185.318,29.06 185.948,29.75 185.948,31.16L185.948,41.24L189.668,41.24L189.668,30.53C189.668,27.62 187.958,25.88 185.168,25.88C183.248,25.88 181.718,26.93 180.548,29C179.918,26.93 178.268,25.88 176.318,25.88C174.608,25.88 173.138,26.78 171.968,28.55L171.968,26.12L168.248,26.12L168.248,41.24L171.968,41.24L171.968,35.69C171.968,31.37 173.318,29.06 175.238,29.06C176.468,29.06 177.098,29.75 177.098,31.16L177.098,41.24L180.818,41.24L180.818,35.36Z" style="fill-rule:nonzero;"/>
        <path d="M206.888,33.35C206.888,31.64 206.348,29.87 205.268,28.4C204.188,26.87 202.238,25.88 199.838,25.88C194.648,25.88 192.578,30.08 192.578,33.68C192.578,37.28 194.648,41.48 199.838,41.48C203.138,41.48 205.418,40.01 206.708,37.07L203.708,35.96C202.808,37.52 201.578,38.3 200.048,38.3C197.888,38.3 196.568,36.71 196.478,34.88L206.888,34.88L206.888,33.35ZM199.838,29.06C201.578,29.06 202.658,30.02 203.078,31.94L196.568,31.94C196.838,30.35 198.068,29.06 199.838,29.06Z" style="fill-rule:nonzero;"/>
        <path d="M209.828,41.24L213.548,41.24L213.548,35.21C213.548,31.4 215.078,29.06 216.998,29.06C218.438,29.06 219.158,29.9 219.158,31.55L219.158,41.24L222.878,41.24L222.878,30.44C222.878,27.47 221.018,25.88 218.228,25.88C216.338,25.88 214.778,26.78 213.548,28.55L213.548,26.12L209.828,26.12L209.828,41.24Z" style="fill-rule:nonzero;"/>
        <path d="M234.608,37.94C234.158,38.18 233.678,38.3 233.168,38.3C231.848,38.3 231.188,37.64 231.188,35.84L231.188,29.3L235.178,29.3L235.178,26.12L231.188,26.12L231.188,20L227.468,22.34L227.468,26.12L225.128,26.12L225.128,29.3L227.468,29.3L227.468,35.9C227.468,39.59 229.538,41.48 233.018,41.48C233.888,41.48 234.698,41.3 235.478,40.94L234.608,37.94Z" style="fill-rule:nonzero;"/>
        <path d="M240.938,30.8C241.328,29.63 242.198,29.06 243.548,29.06C245.318,29.06 246.188,29.81 246.188,31.28L246.188,31.94L243.668,31.94C239.828,31.94 237.218,33.89 237.218,36.89C237.218,39.8 239.138,41.48 241.808,41.48C243.728,41.48 245.288,40.76 246.458,39.32L246.848,41.24L249.908,41.24L249.908,32.21C249.908,27.98 247.778,25.88 243.548,25.88C240.518,25.88 238.268,27.56 237.788,30.08L240.938,30.8ZM241.118,36.83C241.118,35.54 241.988,34.88 243.698,34.88L246.188,34.88L246.188,35.18C246.188,36.11 245.828,36.86 245.108,37.43C244.418,38 243.608,38.3 242.678,38.3C241.688,38.3 241.118,37.64 241.118,36.83Z" style="fill-rule:nonzero;"/>
        <path d="M261.248,37.94C260.798,38.18 260.318,38.3 259.808,38.3C258.488,38.3 257.828,37.64 257.828,35.84L257.828,29.3L261.818,29.3L261.818,26.12L257.828,26.12L257.828,20L254.108,22.34L254.108,26.12L251.768,26.12L251.768,29.3L254.108,29.3L254.108,35.9C254.108,39.59 256.178,41.48 259.658,41.48C260.528,41.48 261.338,41.3 262.118,40.94L261.248,37.94Z" style="fill-rule:nonzero;"/>
        <path d="M264.728,23.48C265.658,24.41 267.218,24.41 268.148,23.48C269.078,22.55 269.078,20.99 268.148,20.06C267.218,19.13 265.658,19.13 264.728,20.06C263.798,20.99 263.798,22.55 264.728,23.48ZM264.578,41.24L268.298,41.24L268.298,26.12L264.578,26.12L264.578,41.24Z" style="fill-rule:nonzero;"/>
        <path d="M273.518,39.29C274.898,40.76 276.758,41.48 279.128,41.48C281.498,41.48 283.358,40.76 284.738,39.29C286.118,37.82 286.808,35.93 286.808,33.68C286.808,31.43 286.118,29.57 284.738,28.1C283.358,26.63 281.498,25.88 279.128,25.88C276.758,25.88 274.898,26.63 273.518,28.1C272.138,29.57 271.448,31.43 271.448,33.68C271.448,35.93 272.138,37.82 273.518,39.29ZM276.368,30.41C277.058,29.51 277.958,29.06 279.128,29.06C280.298,29.06 281.198,29.51 281.888,30.41C282.578,31.28 282.908,32.39 282.908,33.68C282.908,34.97 282.578,36.08 281.888,36.98C281.198,37.85 280.298,38.3 279.128,38.3C277.958,38.3 277.058,37.85 276.368,36.98C275.678,36.08 275.348,34.97 275.348,33.68C275.348,32.39 275.678,31.28 276.368,30.41Z" style="fill-rule:nonzero;"/>
        <path d="M289.718,41.24L293.438,41.24L293.438,35.21C293.438,31.4 294.968,29.06 296.888,29.06C298.328,29.06 299.048,29.9 299.048,31.55L299.048,41.24L302.768,41.24L302.768,30.44C302.768,27.47 300.908,25.88 298.118,25.88C296.228,25.88 294.668,26.78 293.438,28.55L293.438,26.12L289.718,26.12L289.718,41.24Z" style="fill-rule:nonzero;"/>
        <path d="M107.781,60.177C107.121,62.217 105.861,63.237 104.001,63.237C102.661,63.237 101.581,62.757 100.741,61.817C99.921,60.877 99.501,59.517 99.501,57.757C99.501,55.997 99.921,54.637 100.741,53.697C101.581,52.757 102.661,52.277 104.001,52.277C105.861,52.277 107.121,53.297 107.781,55.337L109.481,54.837C109.161,53.577 108.521,52.557 107.561,51.777C106.601,50.997 105.421,50.597 104.001,50.597C102.261,50.597 100.761,51.217 99.521,52.477C98.301,53.737 97.681,55.497 97.681,57.757C97.681,60.017 98.301,61.777 99.521,63.037C100.761,64.297 102.261,64.917 104.001,64.917C105.421,64.917 106.601,64.537 107.561,63.757C108.521,62.977 109.161,61.937 109.481,60.677L107.781,60.177Z" style="fill-rule:nonzero;"/>
        <path d="M120.541,59.297C120.541,57.957 120.141,56.837 119.321,55.917C118.521,54.977 117.401,54.517 115.981,54.517C114.521,54.517 113.401,55.017 112.601,56.037C111.821,57.037 111.421,58.257 111.421,59.717C111.421,61.177 111.821,62.397 112.601,63.417C113.401,64.417 114.521,64.917 115.981,64.917C118.061,64.917 119.321,64.097 120.261,62.117L118.781,61.477C118.201,62.777 117.401,63.397 115.981,63.397C114.241,63.397 113.241,62.057 113.141,60.077L120.541,60.077L120.541,59.297ZM115.981,56.037C117.521,56.037 118.461,57.037 118.781,58.557L113.241,58.557C113.561,57.017 114.481,56.037 115.981,56.037Z" style="fill-rule:nonzero;"/>
        <path d="M131.401,57.657C131.401,55.657 130.281,54.517 128.441,54.517C126.981,54.517 125.861,55.197 125.101,56.537L125.101,54.677L123.421,54.677L123.421,64.757L125.101,64.757L125.101,60.537C125.101,59.197 125.381,58.097 125.941,57.277C126.521,56.457 127.201,56.037 127.981,56.037C129.141,56.037 129.721,56.717 129.721,58.097L129.721,64.757L131.401,64.757L131.401,57.657Z" style="fill-rule:nonzero;"/>
        <path d="M135.301,56.197L135.301,61.597C135.301,63.777 136.441,64.917 138.221,64.917C138.881,64.917 139.421,64.797 139.861,64.537L139.461,63.077C139.141,63.297 138.761,63.397 138.321,63.397C137.461,63.397 136.981,62.797 136.981,61.737L136.981,56.197L139.621,56.197L139.621,54.677L136.981,54.677L136.981,50.597L135.301,51.657L135.301,54.677L133.561,54.677L133.561,56.197L135.301,56.197Z" style="fill-rule:nonzero;"/>
        <path d="M150.641,59.297C150.641,57.957 150.241,56.837 149.421,55.917C148.621,54.977 147.501,54.517 146.081,54.517C144.621,54.517 143.501,55.017 142.701,56.037C141.921,57.037 141.521,58.257 141.521,59.717C141.521,61.177 141.921,62.397 142.701,63.417C143.501,64.417 144.621,64.917 146.081,64.917C148.161,64.917 149.421,64.097 150.361,62.117L148.881,61.477C148.301,62.777 147.501,63.397 146.081,63.397C144.341,63.397 143.341,62.057 143.241,60.077L150.641,60.077L150.641,59.297ZM146.081,56.037C147.621,56.037 148.561,57.037 148.881,58.557L143.341,58.557C143.661,57.017 144.581,56.037 146.081,56.037Z" style="fill-rule:nonzero;"/>
        <path d="M159.221,54.817C158.841,54.617 158.381,54.517 157.841,54.517C156.721,54.517 155.461,55.277 154.881,56.397L154.881,54.677L153.201,54.677L153.201,64.757L154.881,64.757L154.881,60.937C154.881,59.397 155.161,58.197 155.721,57.337C156.281,56.477 156.941,56.037 157.701,56.037C158.121,56.037 158.501,56.137 158.881,56.317L159.221,54.817Z" style="fill-rule:nonzero;"/>
    </g>
    <path d="M302.917,56.749L302.917,64.191C302.917,64.315 302.868,64.433 302.781,64.52C302.693,64.607 302.575,64.656 302.452,64.656L290.358,64.656C290.234,64.656 290.116,64.607 290.029,64.52C289.942,64.433 289.893,64.315 289.893,64.191L289.893,52.097C289.893,51.974 289.942,51.856 290.029,51.768C290.116,51.681 290.234,51.632 290.358,51.632L297.8,51.632C297.966,51.632 298.12,51.721 298.203,51.865C298.286,52.009 298.286,52.186 298.203,52.33C298.12,52.474 297.966,52.562 297.8,52.562L290.823,52.562L290.823,63.726L301.987,63.726L301.987,56.749C301.987,56.583 302.075,56.429 302.219,56.346C302.363,56.263 302.54,56.263 302.684,56.346C302.828,56.429 302.917,56.583 302.917,56.749ZM303.812,50.993C303.779,50.919 303.726,50.854 303.66,50.807C303.645,50.795 303.63,50.785 303.614,50.775C303.544,50.73 303.464,50.705 303.382,50.702L299.661,50.702C299.495,50.702 299.341,50.79 299.258,50.934C299.175,51.078 299.175,51.255 299.258,51.399C299.341,51.543 299.495,51.632 299.661,51.632L302.259,51.632L296.541,57.35C296.423,57.467 296.377,57.639 296.42,57.8C296.463,57.96 296.589,58.086 296.749,58.129C296.91,58.172 297.082,58.126 297.199,58.008L302.917,52.29L302.917,54.888C302.917,55.054 303.006,55.208 303.15,55.291C303.293,55.374 303.471,55.374 303.615,55.291C303.759,55.208 303.847,55.054 303.847,54.888L303.847,51.167C303.847,51.107 303.835,51.048 303.812,50.993Z" style="fill-rule:nonzero;"/>
    <g>
        <clipPath id="_clip1">
            <rect x="0" y="0" width="80" height="80"/>
        </clipPath>
        <g clip-path="url(#_clip1)">
            <g id="touitomamout.svg" transform="matrix(0.0724758,0,0,0.0724758,39.9504,50.6392)">
                <g transform="matrix(1,0,0,1,-1003.01,-967.17)">
                    <clipPath id="_clip2">
                        <rect x="0" y="0" width="2006.02" height="1934.34"/>
                    </clipPath>
                    <g clip-path="url(#_clip2)">
                        <g transform="matrix(1,0,0,1,-384.65,-418)">
                            <path d="M1104.97,590.11L527.13,590.11C448.968,590.11 384.65,654.428 384.65,732.59L384.65,1102.46C384.65,1180.62 448.968,1244.94 527.13,1244.94L560.78,1244.94L560.78,1277.86C560.78,1343.14 614.499,1396.86 679.78,1396.86L1104.97,1396.86L1104.97,590.11Z" style="fill:rgb(255,195,184);fill-rule:nonzero;"/>
                        </g>
                        <g transform="matrix(1,0,0,1,-384.65,-418)">
                            <path d="M2248.19,590.11L1670.39,590.11L1670.39,1396.82L2095.58,1396.82C2160.86,1396.82 2214.58,1343.1 2214.58,1277.82L2214.58,1244.9L2248.23,1244.9C2326.39,1244.9 2390.71,1180.58 2390.71,1102.42L2390.71,732.59C2390.71,654.428 2326.39,590.11 2248.23,590.11C2248.22,590.11 2248.2,590.11 2248.19,590.11Z" style="fill:rgb(255,195,184);fill-rule:nonzero;"/>
                        </g>
                        <g transform="matrix(1,0,0,1,-384.65,-418)">
                            <path d="M1104.97,590.11L527.13,590.11C448.968,590.11 384.65,654.428 384.65,732.59L384.65,1102.46C384.65,1180.62 448.968,1244.94 527.13,1244.94L560.78,1244.94L560.78,1277.86C560.78,1343.14 614.499,1396.86 679.78,1396.86L1104.97,1396.86L1104.97,590.11Z" style="fill:rgb(253,154,149);fill-opacity:0.5;fill-rule:nonzero;"/>
                        </g>
                        <g transform="matrix(1,0,0,1,-384.65,-418)">
                            <path d="M2248.19,590.11L1670.39,590.11L1670.39,1396.82L2095.58,1396.82C2160.86,1396.82 2214.58,1343.1 2214.58,1277.82L2214.58,1244.9L2248.23,1244.9C2326.39,1244.9 2390.71,1180.58 2390.71,1102.42L2390.71,732.59C2390.71,654.428 2326.39,590.11 2248.23,590.11C2248.22,590.11 2248.2,590.11 2248.19,590.11Z" style="fill:rgb(253,154,149);fill-opacity:0.5;fill-rule:nonzero;"/>
                        </g>
                        <g transform="matrix(1,0,0,1,-384.65,-418)">
                            <path d="M1732.42,712.88L1530.18,510.65C1507.63,488.099 1470.51,488.099 1447.96,510.65L1428.55,530.06L1331.4,432.91C1321.86,423.365 1308.9,417.998 1295.4,417.998C1281.9,417.998 1268.94,423.365 1259.4,432.91L1046.95,645.36C1037.4,654.904 1032.04,667.862 1032.04,681.36C1032.04,694.858 1037.4,707.816 1046.95,717.36L1259.4,929.82C1268.94,939.365 1281.9,944.732 1295.4,944.732C1308.9,944.732 1321.86,939.365 1331.4,929.82L1355.92,905.3L1447.92,997.3C1470.47,1019.85 1507.59,1019.85 1530.14,997.3L1732.42,795.1C1754.97,772.547 1754.97,735.433 1732.42,712.88Z" style="fill:rgb(255,195,184);fill-rule:nonzero;"/>
                        </g>
                        <g transform="matrix(1,0,0,1,-384.65,-418)">
                            <path d="M1736.61,2352.34L1048.67,2352.34C931.58,2352.34 836.67,2257.42 836.67,2140.34L836.27,804.25C836.27,687.16 931.19,592.25 1048.27,592.25L1736.21,592.25C1853.3,592.25 1948.21,687.17 1948.21,804.25L1948.61,2140.34C1948.62,2257.42 1853.7,2352.34 1736.61,2352.34Z" style="fill:rgb(255,195,184);fill-rule:nonzero;"/>
                        </g>
                        <rect x="451.86" y="978.81" width="1111.96" height="498.85" style="fill:rgb(121,205,227);"/>
                        <path d="M1007.99,1366.85L1296,978.82L719.98,978.82L1007.99,1366.85Z" style="fill:white;fill-rule:nonzero;"/>
                        <path d="M1007.99,1118.77L1151.37,978.82L864.6,978.82L1007.99,1118.77Z" style="fill:rgb(49,139,195);fill-rule:nonzero;"/>
                        <ellipse cx="794.55" cy="604.26" rx="79.9" ry="108.77" style="fill:rgb(27,26,68);"/>
                        <ellipse cx="595.65" cy="795.38" rx="98.9" ry="71.74" style="fill:rgb(253,154,149);fill-opacity:0.5;"/>
                        <g transform="matrix(1,0,0,1,-384.65,-418)">
                            <path d="M1116.87,1228.6L1120.25,1326.29C1121.3,1357.04 1146.88,1381.76 1177.65,1381.76C1183.62,1381.76 1189.56,1380.82 1195.25,1378.99L1220.83,1370.78C1244.53,1363.17 1260.71,1340.99 1260.71,1316.1C1260.71,1304.79 1257.36,1293.72 1251.1,1284.3L1196.98,1202.9C1172.55,1166.21 1115.35,1184.57 1116.87,1228.6Z" style="fill:white;fill-rule:nonzero;"/>
                        </g>
                        <g transform="matrix(1,0,0,1,-384.65,-418)">
                            <path d="M1668,1228.6L1664.62,1326.29C1663.57,1357.04 1637.99,1381.76 1607.22,1381.76C1601.25,1381.76 1595.31,1380.82 1589.62,1378.99L1564.04,1370.78C1540.34,1363.17 1524.16,1340.99 1524.16,1316.1C1524.16,1304.79 1527.51,1293.72 1533.77,1284.3L1587.89,1202.9C1612.33,1166.21 1669.52,1184.57 1668,1228.6Z" style="fill:white;fill-rule:nonzero;"/>
                        </g>
                        <ellipse cx="1221.03" cy="604.26" rx="79.9" ry="108.77" style="fill:rgb(27,26,68);"/>
                        <ellipse cx="1419.93" cy="795.38" rx="98.9" ry="71.74" style="fill:rgb(253,154,149);fill-opacity:0.5;"/>
                        <path d="M1007.99,1040.81L886.22,1203.83L1007.99,1366.85L1129.75,1203.83L1007.99,1040.81Z" style="fill:rgb(49,139,195);fill-rule:nonzero;"/>
                        <circle cx="789.82" cy="1307.93" r="169.74" style="fill:rgb(255,195,184);"/>
                        <circle cx="1225.86" cy="1307.93" r="169.74" style="fill:rgb(255,195,184);"/>
                        <g transform="matrix(1,0,0,1,-384.65,-418)">
                            <path d="M1174.46,1623.81C1206.51,1623.81 1234.38,1601.03 1240.75,1569.62C1198.39,1551.72 1150.54,1551.72 1108.18,1569.62C1114.55,1601.03 1142.41,1623.81 1174.46,1623.81Z" style="fill:white;fill-rule:nonzero;"/>
                        </g>
                        <g transform="matrix(1,0,0,1,-384.65,-418)">
                            <path d="M1096.23,1660.28C1116.83,1635.73 1117.29,1599.75 1097.33,1574.68C1056.39,1595.61 1025.63,1632.27 1012.12,1676.23C1040.28,1691.53 1075.63,1684.83 1096.23,1660.28Z" style="fill:white;fill-rule:nonzero;"/>
                        </g>
                        <g transform="matrix(1,0,0,1,-384.65,-418)">
                            <path d="M1251.59,1574.68C1242.07,1586.65 1236.89,1601.5 1236.89,1616.79C1236.89,1653.89 1267.42,1684.43 1304.53,1684.43C1315.8,1684.43 1326.89,1681.61 1336.8,1676.23C1323.29,1632.27 1292.53,1595.61 1251.59,1574.68Z" style="fill:white;fill-rule:nonzero;"/>
                        </g>
                        <g transform="matrix(1,0,0,1,-384.65,-418)">
                            <path d="M1610.51,1623.81C1578.46,1623.81 1550.59,1601.03 1544.22,1569.62C1586.58,1551.72 1634.43,1551.72 1676.79,1569.62C1670.42,1601.03 1642.56,1623.81 1610.51,1623.81Z" style="fill:white;fill-rule:nonzero;"/>
                        </g>
                        <g transform="matrix(1,0,0,1,-384.65,-418)">
                            <path d="M1688.74,1660.28C1668.14,1635.73 1667.68,1599.75 1687.64,1574.68C1728.58,1595.61 1759.34,1632.27 1772.85,1676.23C1744.69,1691.53 1709.34,1684.83 1688.74,1660.28Z" style="fill:white;fill-rule:nonzero;"/>
                        </g>
                        <g transform="matrix(1,0,0,1,-384.65,-418)">
                            <path d="M1533.39,1574.68C1542.91,1586.65 1548.09,1601.5 1548.09,1616.79C1548.09,1653.89 1517.56,1684.43 1480.45,1684.43C1469.18,1684.43 1458.09,1681.61 1448.18,1676.23C1461.69,1632.27 1492.45,1595.61 1533.39,1574.68Z" style="fill:white;fill-rule:nonzero;"/>
                        </g>
                        <g transform="matrix(1,0,0,1,-384.65,-418)">
                            <path d="M1525.78,1022.26C1525.78,1506 1829.58,1424.06 1831.7,1442.99C1833.82,1461.92 1831.7,1525.61 1831.7,1544.8C1831.7,1563.99 1179.2,1702.07 1259.1,1022.26L1525.78,1022.26Z" style="fill:rgb(255,195,184);fill-rule:nonzero;"/>
                        </g>
                        <g transform="matrix(1,0,0,1,-384.65,-418)">
                            <path d="M1525.78,1022.26C1525.78,1506 1829.58,1424.06 1831.7,1442.99C1833.82,1461.92 1831.7,1525.61 1831.7,1544.8C1831.7,1563.99 1179.2,1702.07 1259.1,1022.26L1525.78,1022.26Z" style="fill:url(#_Linear3);fill-rule:nonzero;"/>
                        </g>
                    </g>
                </g>
            </g>
        </g>
    </g>
    <defs>
        <linearGradient id="_Linear3" x1="0" y1="0" x2="1" y2="0" gradientUnits="userSpaceOnUse" gradientTransform="matrix(2.16377e-14,353.37,-353.37,2.16377e-14,1542.47,1049.55)"><stop offset="0" style="stop-color:rgb(253,154,149);stop-opacity:0"/><stop offset="1" style="stop-color:rgb(253,154,149);stop-opacity:0.5"/></linearGradient>
    </defs>
</svg>
