<svg id="Calque_1" data-name="Calque 1" xmlns="http://www.w3.org/2000/svg" xmlns:xlink="http://www.w3.org/1999/xlink" viewBox="0 0 2006.02 1934.34">
  <defs>
    <linearGradient id="Dégradé_sans_nom_11" data-name="Dégradé sans nom 11" x1="1542.47" y1="1049.55" x2="1542.47" y2="1402.92" gradientUnits="userSpaceOnUse">
      <stop offset="0" stop-color="#fd9a95" stop-opacity="0"/>
      <stop offset="1" stop-color="#fd9a95"/>
    </linearGradient>
  </defs>
  <title>Touitomamout</title>
  <path d="M560.78,590.11H527.13A142.48,142.48,0,0,0,384.65,732.59v369.87a142.48,142.48,0,0,0,142.48,142.48h33.65v32.92a119,119,0,0,0,119,119h425.19V590.11Z" transform="translate(-384.65 -418)" style="fill: #ffc3b8"/>
  <path d="M2248.19,590.11h-577.8v806.71h425.19a119,119,0,0,0,119-119v-32.92h33.65a142.48,142.48,0,0,0,142.48-142.48V732.59A142.48,142.48,0,0,0,2248.19,590.11Z" transform="translate(-384.65 -418)" style="fill: #ffc3b8"/>
  <path d="M560.78,590.11H527.13A142.48,142.48,0,0,0,384.65,732.59v369.87a142.48,142.48,0,0,0,142.48,142.48h33.65v32.92a119,119,0,0,0,119,119h425.19V590.11Z" transform="translate(-384.65 -418)" style="fill: #fd9a95;opacity: 0.5"/>
  <path d="M2248.19,590.11h-577.8v806.71h425.19a119,119,0,0,0,119-119v-32.92h33.65a142.48,142.48,0,0,0,142.48-142.48V732.59A142.48,142.48,0,0,0,2248.19,590.11Z" transform="translate(-384.65 -418)" style="fill: #fd9a95;opacity: 0.5"/>
  <path d="M1732.42,712.88,1530.18,510.65a58.14,58.14,0,0,0-82.22,0l-19.41,19.41-97.15-97.15a50.91,50.91,0,0,0-72,0L1046.95,645.36a50.91,50.91,0,0,0,0,72L1259.4,929.82a50.91,50.91,0,0,0,72,0l24.52-24.52,92,92a58.14,58.14,0,0,0,82.22,0L1732.42,795.1A58.14,58.14,0,0,0,1732.42,712.88Z" transform="translate(-384.65 -418)" style="fill: #ffc3b8"/>
  <path d="M1736.61,2352.34H1048.67c-117.09,0-212-94.92-212-212l-.4-1336.09c0-117.09,94.92-212,212-212h687.94c117.09,0,212,94.92,212,212l.4,1336.09C1948.62,2257.42,1853.7,2352.34,1736.61,2352.34Z" transform="translate(-384.65 -418)" style="fill: #ffc3b8"/>
  <path d="M836.58,1895.66l.07,244.67c0,117.09,94.92,212,212,212h687.94c117.09,0,212-94.92,212-212l-.07-244.67Z" transform="translate(-384.65 -418)" style="fill: #318bc3"/>
  <rect x="451.86" y="978.81" width="1111.96" height="498.85" style="fill: #79cde3"/>
  <polygon points="1007.99 1366.85 1296 978.82 719.98 978.82 1007.99 1366.85" style="fill: #fff"/>
  <polygon points="1007.99 1118.77 1151.37 978.82 864.6 978.82 1007.99 1118.77" style="fill: #318bc3"/>
  <ellipse cx="794.55" cy="604.26" rx="79.9" ry="108.77" style="fill: #1b1a44"/>
  <ellipse cx="595.65" cy="795.38" rx="98.9" ry="71.74" style="fill: #fd9a95;opacity: 0.5"/>
  <path d="M1116.87,1228.6l3.38,97.69a57.43,57.43,0,0,0,75,52.7l25.58-8.21a57.43,57.43,0,0,0,30.27-86.48l-54.12-81.4C1172.55,1166.21,1115.35,1184.57,1116.87,1228.6Z" transform="translate(-384.65 -418)" style="fill: #fff"/>
  <path d="M1668,1228.6l-3.38,97.69a57.43,57.43,0,0,1-75,52.7l-25.58-8.21a57.43,57.43,0,0,1-30.27-86.48l54.12-81.4C1612.33,1166.21,1669.52,1184.57,1668,1228.6Z" transform="translate(-384.65 -418)" style="fill: #fff"/>
  <ellipse cx="1221.03" cy="604.26" rx="79.9" ry="108.77" style="fill: #1b1a44"/>
  <ellipse cx="1419.93" cy="795.38" rx="98.9" ry="71.74" style="fill: #fd9a95;opacity: 0.5"/>
  <polygon points="1007.99 1040.81 886.22 1203.83 1007.99 1366.85 1129.75 1203.83 1007.99 1040.81" style="fill: #318bc3"/>
  <circle cx="703.9" cy="1706" r="228.34" style="fill: #ffc3b8"/>
  <circle cx="1303.6" cy="1706" r="228.34" style="fill: #ffc3b8"/>
  <circle cx="789.82" cy="1307.93" r="169.74" style="fill: #ffc3b8"/>
  <circle cx="1225.86" cy="1307.93" r="169.74" style="fill: #ffc3b8"/>
  <path d="M1088.55,1986.63a91,91,0,0,0,89.17-72.9,229,229,0,0,0-178.34,0A91,91,0,0,0,1088.55,1986.63Z" transform="translate(-384.65 -418)" style="fill: #fff"/>
  <path d="M983.31,2035.7a91,91,0,0,0,1.49-115.15,229,229,0,0,0-114.63,136.61A91,91,0,0,0,983.31,2035.7Z" transform="translate(-384.65 -418)" style="fill: #fff"/>
  <path d="M1192.31,1920.55a91,91,0,0,0,114.63,136.61A229,229,0,0,0,1192.31,1920.55Z" transform="translate(-384.65 -418)" style="fill: #fff"/>
  <path d="M1174.46,1623.81a67.64,67.64,0,0,0,66.29-54.19,170.26,170.26,0,0,0-132.57,0A67.64,67.64,0,0,0,1174.46,1623.81Z" transform="translate(-384.65 -418)" style="fill: #fff"/>
  <path d="M1096.23,1660.28a67.64,67.64,0,0,0,1.1-85.6,170.2,170.2,0,0,0-85.21,101.55A67.64,67.64,0,0,0,1096.23,1660.28Z" transform="translate(-384.65 -418)" style="fill: #fff"/>
  <path d="M1251.59,1574.68a67.64,67.64,0,0,0,85.21,101.55A170.2,170.2,0,0,0,1251.59,1574.68Z" transform="translate(-384.65 -418)" style="fill: #fff"/>
  <path d="M1610.51,1623.81a67.64,67.64,0,0,1-66.29-54.19,170.26,170.26,0,0,1,132.57,0A67.64,67.64,0,0,1,1610.51,1623.81Z" transform="translate(-384.65 -418)" style="fill: #fff"/>
  <path d="M1688.74,1660.28a67.64,67.64,0,0,1-1.1-85.6,170.2,170.2,0,0,1,85.21,101.55A67.64,67.64,0,0,1,1688.74,1660.28Z" transform="translate(-384.65 -418)" style="fill: #fff"/>
  <path d="M1533.39,1574.68a67.64,67.64,0,0,1-85.21,101.55A170.2,170.2,0,0,1,1533.39,1574.68Z" transform="translate(-384.65 -418)" style="fill: #fff"/>
  <path d="M1688.25,1986.63a91,91,0,0,0,89.17-72.9,229,229,0,0,0-178.34,0A91,91,0,0,0,1688.25,1986.63Z" transform="translate(-384.65 -418)" style="fill: #fff"/>
  <path d="M1583,2035.7a91,91,0,0,0,1.49-115.15,229,229,0,0,0-114.63,136.61A91,91,0,0,0,1583,2035.7Z" transform="translate(-384.65 -418)" style="fill: #fff"/>
  <path d="M1792,1920.55a91,91,0,0,0,114.63,136.61A229,229,0,0,0,1792,1920.55Z" transform="translate(-384.65 -418)" style="fill: #fff"/>
  <path d="M1525.78,1022.26c0,483.74,303.8,401.8,305.92,420.73s0,82.62,0,101.81-652.5,157.27-572.6-522.54Z" transform="translate(-384.65 -418)" style="fill: #ffc3b8"/>
  <path d="M1525.78,1022.26c0,483.74,303.8,401.8,305.92,420.73s0,82.62,0,101.81-652.5,157.27-572.6-522.54Z" transform="translate(-384.65 -418)" style="opacity: 0.5;fill: url(#Dégradé_sans_nom_11)"/>
</svg>
